<svg xmlns="http://www.w3.org/2000/svg" viewBox="0 0 100 100">
  <defs>
    <linearGradient id="grad" x1="0%" y1="0%" x2="100%" y2="100%">
      <stop offset="0%" style="stop-color:#334155;stop-opacity:1" />
      <stop offset="100%" style="stop-color:#1e293b;stop-opacity:1" />
    </linearGradient>
  </defs>
  
  <!-- Background with rounded corners -->
  <rect width="100" height="100" rx="20" fill="url(#grad)"/>
  
  <!-- Gear from logo - exact copy, flipped and without circle -->
  <g transform="translate(50,50) scale(0.022,-0.022) translate(-2550,-3480)">
    <path fill="white" d="M2746 4946 c38 -38 44 -77 19 -126 -26 -51 -59 -60
-208 -60 l-133 0 -17 -107 c-26 -160 -63 -212 -180 -252 -29 -10 -71 -28 -93
-39 -119 -61 -181 -54 -310 34 -51 35 -97 64 -101 64 -5 0 -42 -38 -85 -83
l-76 -84 22 -29 c107 -138 136 -208 117 -284 -19 -72 -101 -254 -127 -281 -40
-41 -84 -59 -197 -78 l-102 -17 -3 -64 c-1 -36 1 -89 5 -119 l8 -55 99 -17
c54 -10 111 -23 126 -29 46 -19 98 -81 124 -150 13 -36 36 -91 51 -123 23 -49
27 -69 23 -118 -4 -53 -11 -68 -71 -157 l-67 -97 86 -83 86 -83 51 38 c114 82
147 101 189 107 54 7 85 -1 222 -58 161 -67 185 -96 214 -264 l17 -97 119 0
119 0 17 102 c19 110 50 177 94 207 14 9 74 37 133 63 92 40 118 48 173 48 71
0 94 -10 213 -97 l58 -42 84 85 84 84 -50 65 c-93 120 -117 198 -84 280 115
296 114 294 358 340 l57 11 0 118 0 118 -82 12 c-46 7 -100 17 -121 22 -47 12
-120 77 -137 122 -7 17 -30 73 -52 124 -60 146 -54 200 41 331 28 38 51 74 51
79 0 17 -158 165 -169 158 -7 -4 -176 -123 -377 -266 -200 -142 -372 -263
-382 -268 -9 -5 -50 -14 -89 -20 -172 -26 -299 -131 -352 -289 -95 -280 129
-567 428 -550 242 14 432 247 390 480 -6 35 -13 86 -16 115 -5 48 -3 55 25 82
38 38 70 46 115 28 43 -18 64 -48 83 -119 91 -344 -121 -702 -471 -793 -75
-19 -221 -19 -303 0 -173 41 -336 170 -420 331 -58 114 -75 193 -69 329 7 169
62 297 182 419 96 98 205 154 380 193 28 6 150 87 410 273 204 145 386 269
405 276 44 16 84 17 134 3 30 -8 70 -41 164 -133 132 -129 161 -172 162 -244
0 -56 -18 -98 -85 -193 -30 -43 -55 -82 -55 -86 0 -5 16 -44 35 -88 l34 -80
108 -18 c125 -21 175 -45 218 -105 l30 -44 0 -202 0 -203 -29 -41 c-37 -54
-104 -86 -227 -107 l-97 -17 -20 -51 c-10 -29 -26 -68 -35 -87 -16 -36 -16
-36 25 -90 81 -105 108 -159 108 -214 -1 -79 -27 -120 -161 -252 -95 -94 -133
-124 -164 -133 -85 -23 -128 -10 -258 82 l-78 55 -83 -36 -84 -35 -17 -106
c-20 -122 -39 -167 -91 -209 -51 -43 -101 -52 -276 -52 -145 0 -157 2 -205 25
-85 43 -100 75 -140 293 l-8 43 -87 35 -88 35 -92 -66 c-100 -71 -149 -90
-212 -80 -65 11 -113 45 -227 162 -118 121 -134 151 -127 242 4 52 11 68 71
155 l68 97 -37 88 -37 88 -81 12 c-176 26 -241 66 -272 166 -17 59 -20 325 -3
376 31 90 92 132 227 155 134 22 127 19 141 66 7 24 22 60 33 81 11 22 17 45
15 52 -3 6 -32 50 -65 96 -69 97 -87 144 -78 203 11 65 45 113 168 231 173
169 229 176 409 48 l83 -60 75 32 c42 18 83 35 92 38 12 4 21 33 33 112 19
120 41 173 88 208 54 40 85 45 262 46 l168 1 34 -34z"/>
  </g>
</svg>
