<svg viewBox="0 0 1024 1024" xmlns="http://www.w3.org/2000/svg">
  <defs>
    <linearGradient id="bgGrad" x1="0%" y1="0%" x2="100%" y2="100%">
      <stop offset="0%" style="stop-color:#5ab3d6;stop-opacity:1" />
      <stop offset="60%" style="stop-color:#3a8fb7;stop-opacity:1" />
      <stop offset="100%" style="stop-color:#1e6a8a;stop-opacity:1" />
    </linearGradient>
  </defs>
  <rect width="1024" height="1024" rx="153.6" fill="url(#bgGrad)"/>

  <!-- Icon mark: scale 6.048 (4.32 * 1.4), recentered so full group is vertically centered -->
  <g transform="translate(409.2, 397.7) scale(6.048, -6.048)">
    <path d="m 237.07,8.38 -0.08,0.01 c -0.9,0.13 -7.91,0.67 -12.26,5.72 -16.58,5.9 -30.61,21.02 -29.01,38.12 3.09,33.02 34.92,40.4 34.92,40.4 -22.02,-1.48 -39.42,-19.8 -39.42,-42.19 0,-23.36 18.94,-42.3 42.29,-42.3 1.31,0 2.61,0.06 3.89,0.18 -0.11,0.02 -0.22,0.03 -0.33,0.05"
       fill="#ffffff" transform="translate(-210, -48)" />
    <path d="m 237.07,8.38 c 0,0 -11.84,1.44 -15.02,12.91 -3.14,11.31 -1.7,19.15 -4.94,25.91 -3.24,6.75 -11.82,11.63 -12.22,11.83 0,0 -2.29,-2.59 -4.12,-6.72 -0.41,-0.92 -4.1,-8.01 -1.5,-16.81 2.83,-9.61 7.02,-14.49 11.29,-19.05 3.17,-3.38 7.86,-6.05 13.1,-7.26 5.55,-1.28 13.41,-0.81 13.41,-0.81"
       fill="#ffffff" transform="translate(-210, -48)" />
    <path d="m 249.02,65.5 c -7.38,11.47 -13.29,26.14 -13.29,26.14 0,0 -6.87,-16.36 -13.83,-26.22 -3.58,-5.08 -4.46,-6.24 -7.44,-10.4 1.96,-1.93 3.83,-4.23 5.08,-6.83 1.93,-4.03 2.36,-8.34 2.82,-12.9 0.39,-3.93 0.6,-8.32 2.43,-13.65 3.72,-10.84 13.27,-11.22 13.27,-11.22 8.17,-0.34 11.72,1.39 15.54,4.11 4.47,3.18 8.16,8.7 8.94,15.35 1.26,10.78 -2.47,18.44 -13.52,35.62"
       fill="#ffffff" transform="translate(-210, -48)" />
  </g>

  <!-- Wordmark: scale 4.8, baseline at 848.7 so group center = y=512 -->
  <g transform="translate(92.1, 848.7) scale(4.8, 4.8)">
    <path d="M 3.4676328,-0.00111719 H 8.6121641 V -12.903461 H 20.577008 v 12.90234381 h 5.144531 V -29.391742 h -5.144531 v 12.035156 H 8.6121641 V -29.391742 H 3.4676328 Z M 29.108258,8.6590391 c 0.65625,0.1171875 1.675781,0.1640625 2.414062,0.1640625 4.980469,0 7.183594,-1.921875 9.667969,-9.31640629 L 48.057477,-20.825336 H 43.065289 L 38.166852,-4.9464297 33.350445,-20.825336 h -5.179687 l 6.65625,20.33203131 h 1.464844 C 34.662945,3.8777891 33.39732,4.6981016 31.14732,4.6981016 c -0.691406,0 -1.347656,-0.082031 -2.039062,-0.2109375 z M 67.689313,-0.00111719 C 67.490094,-0.41127344 67.279156,-1.4659609 67.279156,-4.7354922 V -29.391742 h -5.0625 v 11.015625 c -1.675781,-1.957031 -3.550781,-2.941406 -5.871093,-2.941406 -4.664063,0 -8.332032,3.960937 -8.332032,11.273437 0,6.7734376 3.1875,10.53515631 7.839844,10.53515631 2.53125,0 4.605469,-1.1484375 6.410156,-3.22265621 0.117188,1.82812496 0.328125,2.40234371 0.527344,2.73046871 z M 57.529156,-3.5518984 c -2.578125,0 -4.453125,-2.0390625 -4.453125,-6.6914066 0,-4.664062 1.875,-6.738281 4.617188,-6.738281 1.582031,0 3.09375,0.726563 4.523437,2.238281 v 8.7773441 c -1.546875,1.59375 -3.058593,2.4140625 -4.6875,2.4140625 z M 83.852398,-21.188617 c -0.328125,-0.08203 -0.820312,-0.128906 -1.265625,-0.128906 -2.777343,0 -4.863281,1.757812 -6.046875,3.714843 v -3.222656 h -5.0625 v 20.82421881 h 5.0625 V -13.887836 c 0.867188,-0.890625 3.070313,-2.847656 6.011719,-2.847656 0.445313,0 0.972656,0.03516 1.300781,0.08203 z m 8.944336,3.914062 c 2.53125,0 3.832032,1.019532 3.832032,3.761719 v 0.808594 c -1.054688,-0.152344 -1.910157,-0.234375 -3.09375,-0.234375 -6.621094,0 -9.433594,2.613281 -9.433594,6.9726561 0,4.2070312 2.613281,6.45703121 6.199219,6.45703121 2.449218,0 4.582031,-1.01953125 6.375,-2.85937501 0.117187,1.46484376 0.328125,2.03906251 0.527343,2.36718751 h 4.781246 c -0.21093,-0.4921875 -0.41015,-1.42968751 -0.41015,-4.73437501 v -9.1874998 c 0,-5.554688 -2.941408,-7.394531 -7.710939,-7.394531 -3.351563,0 -6.292969,0.902343 -8.625,2.050781 l 1.066406,3.832031 c 2.167969,-1.066406 4.289062,-1.839844 6.492187,-1.839844 z m -0.773437,13.9218753 c -1.804688,0 -2.988281,-0.9726562 -2.988281,-3.09375 0,-2.25 1.347656,-3.3984375 4.945312,-3.3984375 0.984375,0 1.59375,0.082031 2.648438,0.2460938 v 4.171875 c -1.265625,1.1835937 -2.929688,2.0742187 -4.605469,2.0742187 z m 0,0"
       fill="#ffffff" />
    <path d="m 122.88755,-0.00111719 h 1.95704 l 6.60937,-20.82421881 h -2.03906 l -3.91406,12.7031251 c -0.98438,3.1757812 -1.42969,5.015625 -1.59375,6.0351562 h -0.082 c -0.52734,-2.5664062 -0.6914,-3.140625 -1.59375,-6.0820312 l -3.83203,-12.6562501 h -1.96875 l -3.91406,12.5742188 c -0.82031,2.6132813 -1.26562,4.125 -1.67578,6.1640625 h -0.082 c -0.28125,-1.7109375 -0.9375,-3.9609375 -1.62891,-6.28125 l -3.76172,-12.4570313 h -2.08593 l 6.45703,20.82421881 h 1.95703 l 3.96094,-12.70312481 c 0.60937,-1.957031 1.26562,-4.160156 1.67578,-6.117188 h 0.082 c 0.44531,2.121094 0.9375,3.914063 1.6289,6.199219 z m 12.12598,0 h 1.95703 V -20.825336 h -1.95703 z m 2.44922,-26.62499981 c 0,-0.808594 -0.62109,-1.429688 -1.47656,-1.429688 -0.85547,0 -1.46485,0.621094 -1.46485,1.429688 0,0.820312 0.60938,1.429687 1.46485,1.429687 0.85547,0 1.47656,-0.609375 1.47656,-1.429687 z m 16.04004,7.394531 c -1.71094,-1.300781 -3.76172,-2.085937 -6,-2.085937 -3.92578,0 -6.49219,2.332031 -6.49219,5.71875 0,7.1015621 11.17969,3.796875 11.17969,10.1249996 0,2.578125 -1.82813,4.2421875 -4.98047,4.2421875 -2.32031,0 -4.35937,-0.890625 -6.28125,-2.203125 l -0.73828,1.8046875 c 1.92187,1.30078121 4.24219,2.12109371 6.73828,2.12109371 4.32422,0 7.23047,-2.41406251 7.23047,-6.24609371 0,-7.5937496 -11.19141,-4.4179686 -11.19141,-10.0429686 0,-2.203125 1.67578,-3.796875 4.3711,-3.796875 2.03906,0 3.83203,0.9375 5.42578,2.15625 z m 11.71582,-0.410156 c 3.55078,0 6.08203,2.332031 6.12891,7.722656 h -13.23047 c 0.49218,-5.0625 3.30468,-7.722656 7.10156,-7.722656 z m 8.08594,9.398437 c 0.0351,-0.492187 0.0351,-0.574218 0.0351,-1.195312 0,-6.527344 -3.25781,-9.878906 -8.03906,-9.878906 -5.14453,0 -9.1875,3.925781 -9.1875,11.191406 0,6.9843748 3.76172,10.61718731 9.1875,10.61718731 2.53125,0 5.22656,-0.8203125 7.47656,-2.33203121 l -0.73828,-1.6289063 c -1.95703,1.3007813 -4.16015,2.2382813 -6.57422,2.2382813 -4.45312,0 -7.39453,-3.140625 -7.39453,-9.0117191 z m 0,0"
       fill="#ffffff" />
  </g>
</svg>
