<?xml version="1.0" standalone="no"?>
<!DOCTYPE svg PUBLIC "-//W3C//DTD SVG 20010904//EN"
 "http://www.w3.org/TR/2001/REC-SVG-20010904/DTD/svg10.dtd">
<svg version="1.0" xmlns="http://www.w3.org/2000/svg"
 width="2000.000000pt" height="657.000000pt" viewBox="0 0 2000.000000 657.000000"
 preserveAspectRatio="xMidYMid meet">

<g transform="translate(0.000000,657.000000) scale(0.100000,-0.100000)"
fill="#000000" stroke="none">
<path d="M14875 6493 c-116 -16 -237 -75 -301 -147 -99 -109 -133 -223 -141
-473 l-6 -173 -114 0 -113 0 0 -150 0 -150 115 0 115 0 0 -755 0 -755 175 0
175 0 0 755 0 755 320 0 320 0 0 -755 0 -755 175 0 175 0 0 905 0 905 -496 0
-496 0 4 163 c4 121 9 171 21 198 42 94 110 132 234 133 l73 1 -2 150 -3 150
-100 1 c-55 1 -113 -1 -130 -3z"/>
<path d="M9940 5190 l0 -1300 170 0 170 0 0 1300 0 1300 -170 0 -170 0 0
-1300z"/>
<path d="M12810 5975 c0 -283 -4 -515 -8 -515 -4 0 -28 21 -52 46 -57 59 -174
137 -248 164 -183 69 -448 66 -627 -6 -220 -90 -395 -305 -465 -574 -32 -122
-39 -381 -15 -517 54 -301 207 -517 450 -634 109 -53 203 -72 355 -72 144 0
227 17 337 69 80 38 208 135 243 184 30 42 36 30 44 -95 11 -149 -7 -135 172
-135 l154 0 0 1300 0 1300 -170 0 -170 0 0 -515z m-407 -580 c90 -23 157 -63
227 -134 119 -121 171 -259 171 -461 0 -182 -28 -287 -108 -404 -101 -147
-241 -219 -427 -218 -304 2 -501 216 -522 567 -20 322 135 581 389 650 69 18
199 19 270 0z"/>
<path d="M19420 5970 l0 -520 -42 46 c-48 52 -179 141 -253 172 -96 39 -206
55 -354 49 -152 -5 -228 -24 -342 -84 -293 -153 -458 -499 -435 -913 10 -182
57 -348 138 -485 52 -88 183 -218 268 -268 128 -74 319 -115 475 -102 201 18
343 82 486 222 l66 65 6 -59 c4 -32 9 -91 13 -130 l7 -73 153 0 154 0 0 1300
0 1300 -170 0 -170 0 0 -520z m-418 -571 c188 -39 347 -206 399 -419 20 -81
18 -308 -4 -389 -54 -200 -198 -353 -376 -401 -74 -19 -229 -14 -302 10 -173
58 -299 207 -343 407 -20 91 -21 275 -1 368 37 172 157 334 293 392 95 41 229
54 334 32z"/>
<path d="M10783 6449 c-81 -40 -123 -111 -123 -209 0 -131 91 -220 227 -220
204 0 301 246 152 387 -69 65 -175 82 -256 42z"/>
<path d="M13655 6451 c-159 -72 -178 -297 -35 -396 33 -23 56 -30 105 -33 80
-5 127 10 182 61 119 110 79 309 -74 374 -45 18 -131 16 -178 -6z"/>
<path d="M15489 6442 c-139 -73 -162 -266 -43 -371 139 -122 361 -38 382 145
20 183 -174 313 -339 226z"/>
<path d="M6650 6439 c-119 -14 -228 -46 -330 -96 -176 -87 -303 -244 -345
-427 -19 -83 -22 -250 -5 -332 38 -189 183 -338 420 -432 41 -16 170 -60 285
-97 116 -37 244 -81 285 -98 169 -69 270 -149 315 -248 24 -55 27 -70 23 -152
-2 -76 -8 -102 -31 -149 -55 -112 -149 -183 -284 -214 -80 -18 -257 -21 -340
-4 -75 15 -186 69 -242 116 -53 46 -114 137 -136 203 l-16 49 -155 -59 c-85
-32 -159 -61 -164 -64 -5 -3 1 -35 14 -70 102 -280 374 -459 757 -496 409 -39
750 113 890 396 59 121 74 188 74 340 0 161 -21 238 -95 348 -55 83 -97 124
-190 187 -100 68 -214 116 -504 212 -149 49 -304 105 -343 123 -96 44 -176
120 -199 187 -23 69 -16 197 14 255 69 134 207 210 397 220 232 12 438 -87
523 -251 l27 -53 158 58 c87 31 161 59 163 62 2 2 -14 41 -37 86 -146 292
-508 448 -929 400z"/>
<path d="M2295 5819 c-357 -36 -727 -169 -1039 -373 -197 -128 -440 -356 -582
-546 -241 -320 -387 -674 -450 -1090 -25 -160 -25 -481 0 -645 79 -520 299
-958 666 -1325 367 -367 806 -587 1325 -666 147 -22 474 -25 615 -5 683 94
1268 452 1649 1011 470 689 532 1592 161 2345 -356 724 -1058 1212 -1859 1294
-117 12 -367 12 -486 0z m451 -873 c38 -38 44 -77 19 -126 -26 -51 -59 -60
-208 -60 l-133 0 -17 -107 c-26 -160 -63 -212 -180 -252 -29 -10 -71 -28 -93
-39 -119 -61 -181 -54 -310 34 -51 35 -97 64 -101 64 -5 0 -42 -38 -85 -83
l-76 -84 22 -29 c107 -138 136 -208 117 -284 -19 -72 -101 -254 -127 -281 -40
-41 -84 -59 -197 -78 l-102 -17 -3 -64 c-1 -36 1 -89 5 -119 l8 -55 99 -17
c54 -10 111 -23 126 -29 46 -19 98 -81 124 -150 13 -36 36 -91 51 -123 23 -49
27 -69 23 -118 -4 -53 -11 -68 -71 -157 l-67 -97 86 -83 86 -83 51 38 c114 82
147 101 189 107 54 7 85 -1 222 -58 161 -67 185 -96 214 -264 l17 -97 119 0
119 0 17 102 c19 110 50 177 94 207 14 9 74 37 133 63 92 40 118 48 173 48 71
0 94 -10 213 -97 l58 -42 84 85 84 84 -50 65 c-93 120 -117 198 -84 280 115
296 114 294 358 340 l57 11 0 118 0 118 -82 12 c-46 7 -100 17 -121 22 -47 12
-120 77 -137 122 -7 17 -30 73 -52 124 -60 146 -54 200 41 331 28 38 51 74 51
79 0 17 -158 165 -169 158 -7 -4 -176 -123 -377 -266 -200 -142 -372 -263
-382 -268 -9 -5 -50 -14 -89 -20 -172 -26 -299 -131 -352 -289 -95 -280 129
-567 428 -550 242 14 432 247 390 480 -6 35 -13 86 -16 115 -5 48 -3 55 25 82
38 38 70 46 115 28 43 -18 64 -48 83 -119 91 -344 -121 -702 -471 -793 -75
-19 -221 -19 -303 0 -173 41 -336 170 -420 331 -58 114 -75 193 -69 329 7 169
62 297 182 419 96 98 205 154 380 193 28 6 150 87 410 273 204 145 386 269
405 276 44 16 84 17 134 3 30 -8 70 -41 164 -133 132 -129 161 -172 162 -244
0 -56 -18 -98 -85 -193 -30 -43 -55 -82 -55 -86 0 -5 16 -44 35 -88 l34 -80
108 -18 c125 -21 175 -45 218 -105 l30 -44 0 -202 0 -203 -29 -41 c-37 -54
-104 -86 -227 -107 l-97 -17 -20 -51 c-10 -29 -26 -68 -35 -87 -16 -36 -16
-36 25 -90 81 -105 108 -159 108 -214 -1 -79 -27 -120 -161 -252 -95 -94 -133
-124 -164 -133 -85 -23 -128 -10 -258 82 l-78 55 -83 -36 -84 -35 -17 -106
c-20 -122 -39 -167 -91 -209 -51 -43 -101 -52 -276 -52 -145 0 -157 2 -205 25
-85 43 -100 75 -140 293 l-8 43 -87 35 -88 35 -92 -66 c-100 -71 -149 -90
-212 -80 -65 11 -113 45 -227 162 -118 121 -134 151 -127 242 4 52 11 68 71
155 l68 97 -37 88 -37 88 -81 12 c-176 26 -241 66 -272 166 -17 59 -20 325 -3
376 31 90 92 132 227 155 134 22 127 19 141 66 7 24 22 60 33 81 11 22 17 45
15 52 -3 6 -32 50 -65 96 -69 97 -87 144 -78 203 11 65 45 113 168 231 173
169 229 176 409 48 l83 -60 75 32 c42 18 83 35 92 38 12 4 21 33 33 112 19
120 41 173 88 208 54 40 85 45 262 46 l168 1 34 -34z"/>
<path d="M8587 5710 c-195 -35 -361 -123 -493 -263 -168 -176 -239 -371 -239
-657 0 -227 43 -389 144 -542 128 -194 317 -318 566 -369 76 -16 291 -16 372
0 358 69 618 312 705 658 19 74 22 115 22 263 0 157 -3 185 -27 272 -81 303
-297 523 -604 614 -75 22 -111 27 -243 30 -85 1 -177 -1 -203 -6z m302 -315
c141 -34 276 -137 344 -262 65 -121 89 -352 53 -521 -53 -254 -271 -432 -530
-434 -148 -1 -265 42 -363 135 -116 109 -163 230 -170 438 -8 210 24 338 116
459 124 164 336 235 550 185z"/>
<path d="M16820 5714 c-195 -38 -346 -119 -476 -257 -161 -169 -244 -390 -244
-652 0 -441 245 -796 626 -905 246 -71 536 -35 751 91 113 67 327 311 297 338
-10 10 -264 101 -279 101 -6 0 -19 -15 -29 -34 -44 -82 -161 -162 -287 -196
-112 -30 -269 -30 -358 0 -169 56 -294 196 -336 372 -8 35 -15 69 -15 76 0 9
140 12 669 12 l670 0 7 56 c3 30 4 119 1 197 -6 168 -25 247 -95 382 -37 73
-64 108 -142 186 -85 86 -107 102 -200 147 -146 70 -206 84 -385 87 -82 2
-161 1 -175 -1z m278 -315 c107 -23 231 -113 289 -210 33 -55 63 -151 63 -201
l0 -28 -485 0 c-555 0 -500 -12 -465 101 40 129 142 248 266 309 96 47 202 56
332 29z"/>
<path d="M10710 4795 l0 -905 170 0 170 0 0 905 0 905 -170 0 -170 0 0 -905z"/>
<path d="M13580 4795 l0 -905 170 0 170 0 0 905 0 905 -170 0 -170 0 0 -905z"/>
<path d="M6591 3364 c-106 -18 -234 -61 -309 -105 -81 -48 -211 -180 -250
-256 -50 -96 -73 -199 -73 -333 0 -216 65 -357 215 -467 113 -84 214 -125 597
-247 233 -74 344 -129 430 -215 84 -84 103 -135 97 -260 -3 -68 -10 -97 -32
-141 -32 -64 -94 -131 -152 -166 -100 -59 -322 -82 -475 -50 -173 37 -318 159
-371 311 -10 29 -23 49 -30 47 -7 -1 -81 -27 -165 -58 l-151 -55 10 -37 c20
-77 81 -183 145 -252 113 -122 261 -205 450 -252 120 -31 435 -33 555 -5 237
56 423 194 513 382 46 97 65 172 71 295 14 249 -81 436 -293 576 -106 71 -221
119 -537 223 -272 90 -357 127 -427 190 -69 60 -92 122 -87 230 3 67 10 97 30
136 48 93 151 168 275 200 74 19 230 19 312 0 142 -34 280 -133 330 -237 13
-27 26 -48 30 -48 8 0 314 111 319 115 2 2 -13 37 -33 78 -84 171 -236 297
-443 367 -144 48 -381 62 -551 34z"/>
<path d="M11430 2885 l0 -255 -130 0 -130 0 0 -150 0 -150 129 0 129 0 4 -517
c4 -490 6 -522 26 -595 29 -106 65 -172 130 -240 66 -70 130 -108 232 -139 63
-20 95 -23 205 -22 72 1 146 6 165 10 l35 9 3 144 3 145 -128 0 c-118 0 -133
2 -185 27 -68 32 -112 86 -127 159 -7 32 -11 228 -11 534 l0 485 225 0 225 0
0 150 0 150 -225 0 -225 0 0 255 0 255 -175 0 -175 0 0 -255z"/>
<path d="M10220 2649 c-379 -44 -620 -313 -557 -623 19 -92 57 -157 131 -221
96 -85 188 -122 525 -215 307 -84 368 -129 359 -265 -3 -49 -10 -70 -32 -99
-59 -79 -158 -116 -306 -116 -201 0 -346 85 -396 233 -9 26 -18 47 -21 47 -5
0 -296 -102 -301 -105 -7 -6 49 -141 79 -191 50 -83 145 -167 242 -213 118
-57 183 -72 339 -78 277 -11 460 45 610 186 157 147 201 369 109 555 -81 165
-241 253 -679 372 -181 49 -227 69 -266 114 -32 39 -40 68 -34 125 16 133 166
204 391 183 127 -12 216 -62 277 -156 l15 -23 148 48 c135 44 147 50 143 69
-20 80 -147 225 -246 281 -78 45 -190 80 -295 92 -100 12 -127 12 -235 0z"/>
<path d="M13120 2650 c-369 -46 -642 -298 -737 -678 -26 -105 -24 -370 5 -484
85 -340 312 -580 627 -664 100 -27 380 -27 480 0 156 41 315 134 417 245 53
56 128 167 128 188 0 5 -15 14 -32 20 -18 6 -83 29 -145 50 l-111 40 -32 -48
c-51 -80 -132 -136 -260 -181 -72 -26 -255 -36 -331 -18 -193 44 -343 199
-384 396 -8 37 -12 71 -9 76 3 4 304 8 669 8 l664 0 7 38 c14 68 7 283 -11
367 -69 323 -309 565 -625 628 -98 20 -238 28 -320 17z m223 -315 c188 -40
348 -209 364 -385 l6 -60 -487 0 -486 0 0 23 c1 39 46 152 85 211 47 72 123
139 200 177 100 49 198 60 318 34z"/>
<path d="M15095 2649 c-132 -20 -248 -76 -344 -165 l-59 -54 -6 37 c-3 21 -8
66 -12 101 l-6 62 -154 0 -154 0 0 -905 0 -905 170 0 170 0 0 545 c0 458 3
558 16 623 31 154 110 263 232 320 52 25 67 27 182 27 122 0 127 -1 192 -33
73 -36 115 -79 153 -157 58 -119 58 -121 63 -747 l3 -578 169 0 169 0 3 568
c4 495 6 574 21 625 56 191 183 307 354 325 248 26 402 -75 465 -303 21 -77
22 -101 26 -647 l4 -568 169 0 169 0 0 563 c0 690 -6 752 -91 926 -78 158
-218 270 -404 322 -64 18 -104 22 -205 22 -145 -1 -243 -22 -357 -78 -109 -54
-172 -109 -246 -218 -12 -17 -18 -13 -64 51 -81 110 -210 195 -345 227 -85 19
-210 26 -283 14z"/>
<path d="M17925 2649 c-98 -12 -232 -56 -311 -103 -77 -44 -174 -147 -208
-220 -58 -123 -58 -300 1 -408 53 -98 189 -197 338 -246 33 -11 152 -46 264
-76 303 -84 370 -127 379 -245 7 -97 -38 -160 -154 -213 -43 -20 -65 -23 -179
-23 -99 0 -142 4 -181 18 -112 39 -183 106 -220 205 -10 26 -19 49 -20 50 -1
2 -71 -20 -154 -50 -176 -62 -168 -46 -95 -193 77 -159 206 -261 401 -317 70
-20 99 -23 264 -22 172 0 191 2 275 28 122 37 207 86 288 167 192 192 194 488
4 665 -102 95 -256 161 -572 244 -251 67 -315 112 -315 223 0 96 50 153 162
188 71 23 214 27 292 9 91 -20 182 -82 206 -140 7 -16 15 -30 19 -30 13 0 287
93 295 100 15 15 -58 134 -124 200 -146 148 -397 220 -655 189z"/>
<path d="M7766 2618 c2 -7 163 -406 358 -887 l353 -873 -139 -332 c-77 -182
-148 -352 -159 -379 l-19 -47 168 0 168 0 516 1248 c285 686 520 1255 524
1265 6 16 -5 17 -171 15 l-178 -3 -261 -677 c-143 -373 -263 -674 -267 -670
-6 5 -463 1191 -511 1325 l-10 27 -189 0 c-147 0 -187 -3 -183 -12z"/>
</g>
</svg>
