<svg xmlns="http://www.w3.org/2000/svg" viewBox="0 0 1024 1024" width="1024" height="1024">
  <!-- Red background with rounded corners -->
  <rect width="1024" height="1024" rx="180" ry="180" fill="#C72030"/>
  
  <!-- TCL logo centered and scaled, with white color -->
  <g transform="translate(512, 512) scale(5.4) translate(-65.05, -13.5)">
    <g transform="translate(8, 2.1)">
      <!-- T -->
      <polygon fill="#FFFFFF" points="-8,-10.9 -8,0.1 6.8,0.1 6.8,27.5 20,27.5 20,0.1 34.7,0.1 34.7,-10.9"/>
      
      <!-- C -->
      <path fill="#FFFFFF" d="M60.6,19.5c-3.1,0-5.4-0.9-7.3-2.8C51.4,14.9,50,12,50,8.2V7.7c0-3.8,1.4-6.7,3.3-8.5
        c2-1.9,4.3-2.8,7.3-2.8c7.2,0,8.7,4.4,9.2,7.3h11.7c-0.3-5.8-3-9.9-6.8-12.7c-3.8-2.7-8.2-4.1-14-4.1c-7.2,0-12.3,1.6-16.5,5.3
        C40-3.9,37.8,2,37.8,7.8v0.3c0,6.4,2,11.3,6.3,15.3c4,3.8,9.9,5.5,16.5,5.5c5.8,0,10.8-1.4,14.3-4.1c3.8-3,6.4-7.1,6.7-12.6
        H69.8C69.5,14.6,68.1,19.5,60.6,19.5"/>
      
      <!-- L -->
      <polygon fill="#FFFFFF" points="101.3,16.9 101.3,-10.9 88.6,-10.9 88.6,27.5 122.1,27.5 122.1,16.9"/>
    </g>
  </g>
</svg>