<?xml version="1.0" encoding="UTF-8"?>
<svg viewBox="0 0 1024 1024" xmlns="http://www.w3.org/2000/svg">
  <!-- Background with rounded corners -->
  <rect width="1024" height="1024" rx="150" fill="rgb(255, 72, 0)"/>
  
  <!-- Tuya logo centered and scaled -->
  <g transform="translate(512, 512) scale(18) translate(-27.75, -27.75)">
    <path d="M 9.99,21.985 A 1,1 0 0,1 11,23 V 24 H 14 A 1,1 0 1,1 14,26 H 11 V 29 C 11,29.34 11.11,29.87 11.41,30.3 C 11.68,30.66 12.13,31 13,31 H 14 A 1,1 0 1,1 14,33 H 13 A 3.78,3.78 0 0,1 9.79,31.46 C 9.19,30.63 9,29.66 9,29 V 26 H 8 A 1,1 0 1,1 8,24 H 9 V 23 A 1,1 0 0,1 10,22 Z" fill="rgb(254, 254, 253)"/>
    <path d="M 16.99,23.985 A 1,1 0 0,1 18,25 V 29 C 18,29.37 18.1,29.9 18.38,30.3 C 18.62,30.65 19.06,31 20,31 C 20.94,31 21.38,30.65 21.62,30.3 C 21.9,29.9 22,29.37 22,29 V 25 A 1,1 0 1,1 24,25 V 29 C 24,29.63 23.85,30.6 23.26,31.45 C 22.62,32.35 21.56,33 20,33 A 3.77,3.77 0 0,1 16.74,31.45 A 4.38,4.38 0 0,1 16,29 V 25 A 1,1 0 0,1 17,24 Z M 27,25 A 1,1 0 1,0 25,25 V 29 C 25,29.63 25.15,30.6 25.74,31.45 C 26.38,32.35 27.44,33 29,33 C 29.75,33 30.39,32.85 30.92,32.6 C 30.83,32.87 30.68,33.12 30.46,33.32 C 30.07,33.66 29.34,34 28,34 A 1,1 0 1,0 28,36 C 29.66,36 30.93,35.59 31.8,34.8 A 3.7,3.7 0 0,0 33,32 V 25 A 1,1 0 1,0 31,25 V 29 C 31,29.37 30.9,29.9 30.62,30.3 C 30.38,30.65 29.94,31 29,31 C 28.06,31 27.62,30.65 27.38,30.3 C 27.1,29.9 27,29.37 27,29 V 25 Z M 38.5,31 C 39.02,31 39.5,31.46 39.5,31.98 V 32.14 C 39.5,32.63 39.13,33.01 38.65,33 H 38.5 A 4.5,4.5 0 1,1 38.5,24 C 40.55,24 43,25.77 43,28 V 32 A 1,1 0 0,1 41,32 V 28.5 A 2.5,2.5 0 1,0 38.5,31 Z M 41.16,20.2 A 1.02,1.02 0 0,1 40.01,19.3 C 39.93,18.72 40.31,18.18 40.87,18.1 C 44.74,17.52 48.42,19.6 48.99,23.79 C 49.07,24.37 48.69,24.91 48.13,24.99 A 1.02,1.02 0 0,1 46.98,24.09 C 46.56,21.05 43.93,19.79 41.16,20.2 Z M 41.02,21.8 C 41.02,21.22 41.47,20.74 42.03,20.74 C 43.79,20.74 45.62,21.81 46.07,23.68 C 46.2,24.25 45.87,24.83 45.33,24.97 C 44.78,25.11 44.23,24.77 44.09,24.19 C 43.88,23.29 42.85,22.87 42.03,22.87 C 41.47,22.87 41.02,22.4 41.02,21.81 Z" fill="snow"/>
  </g>
</svg>